# xmcd CD database file
#
# Track frame offsets:
#	150
#	14180
#	27949
#	42098
#	57486
#	77463
#	100276
#	112363
#	126531
#	149952
#	168885
#	188323
#	202944
#	219354
#	242847
#	266452
#	284095
#	302973
#	321995
#
# Disc length: 4537 seconds
#
# Revision: 0
# Processed by: cddbd v1.5.2PL0 Copyright (c) Steve Scherf et al.
# Submitted via: CDex 1.51
#
DISCID=2611b713
DTITLE=Louis Armstrong - Summertime - Satchmo's Finest Tracks [CD2]
DYEAR=2006
DGENRE=Jazz
TTITLE0=You Rascal You (I'll Be Glad When You're Dead) w/ Louis Jordan
TTITLE1=Do You Know What It Means To Miss New Orleans?
TTITLE2=Where the Blues Were Born In New Orleans
TTITLE3=Sugar
TTITLE4=(What Did I Do To Be So) Black and Blue
TTITLE5=Old Rockin' Chair
TTITLE6=When The Saints Go Marching In
TTITLE7=I'm In The Mood For Love
TTITLE8=Basin Street Blues
TTITLE9=Gee Baby Ain't I Good To You? w/ Ella Fitzgerald
TTITLE10=Willow Weep For Me
TTITLE11=You Can't Lost A Broken Heart w/ Billie Holiday
TTITLE12=Don't Get Around Much Anymore
TTITLE13=Sweet Lorraine
TTITLE14=Stompin' At The Savoy w/ Ella Fitzgerald
TTITLE15=I Gotta Right To Sing The Blues
TTITLE16=Top Hat, White Tie and Tails
TTITLE17=Let's Call The Whole Thing Off w/ Ella Fitzgerald
TTITLE18=We'll Be Together Again
EXTD=YEAR: 2006
EXTT0=
EXTT1=
EXTT2=
EXTT3=
EXTT4=
EXTT5=
EXTT6=
EXTT7=
EXTT8=
EXTT9=
EXTT10=
EXTT11=
EXTT12=
EXTT13=
EXTT14=
EXTT15=
EXTT16=
EXTT17=
EXTT18=
PLAYORDER=
